<svg xmlns="http://www.w3.org/2000/svg" viewBox="0 0 456 24" width="456" height="24"><path d="M5 15h14c.55 0 1-.45 1-1s-.45-1-1-1H5c-.55 0-1 .45-1 1s.45 1 1 1zm0 4h14c.55 0 1-.45 1-1s-.45-1-1-1H5c-.55 0-1 .45-1 1s.45 1 1 1zm0-8h14c.55 0 1-.45 1-1s-.45-1-1-1H5c-.55 0-1 .45-1 1s.45 1 1 1zM4 6c0 .55.45 1 1 1h14c.55 0 1-.45 1-1s-.45-1-1-1H5c-.55 0-1 .45-1 1zm13 6M28.993 15h13.942c.55 0 1-.45 1-1s-.45-1-1-1H28.993c-.55 0-1 .45-1 1s.45 1 1 1zm0 4h13.942c.55 0 1-.45 1-1s-.45-1-1-1H28.993c-.55 0-1 .45-1 1s.45 1 1 1zm0-8h13.942c.55 0 1-.45 1-1s-.45-1-1-1H28.993c-.55 0-1 .45-1 1s.45 1 1 1zm-1-5c0 .55.45 1 1 1h13.942c.55 0 1-.45 1-1s-.45-1-1-1H28.993c-.55 0-1 .45-1 1zm12.985 5.95h.044c.004 0 .007.003.007.007v.086c0 .004-.003.007-.007.007h-.044c-.004 0-.007-.003-.007-.007v-.086c0-.004.003-.007.007-.007M52.967 15h13.738c.55 0 1-.45 1-1s-.45-1-1-1H52.967c-.55 0-1 .45-1 1s.45 1 1 1zm0 4h13.738c.55 0 1-.45 1-1s-.45-1-1-1H52.967c-.55 0-1 .45-1 1s.45 1 1 1zm0-8h13.738c.55 0 1-.45 1-1s-.45-1-1-1H52.967c-.55 0-1 .45-1 1s.45 1 1 1zm-1-5c0 .55.45 1 1 1h13.738c.55 0 1-.45 1-1s-.45-1-1-1H52.967c-.55 0-1 .45-1 1zm12.935 5.77h.196c.018 0 .033.015.033.033v.394c0 .018-.015.033-.033.033h-.196c-.018 0-.033-.015-.033-.033v-.394c0-.018.015-.033.033-.033M76.915 15h13.319c.55 0 1-.45 1-1s-.45-1-1-1H76.915c-.55 0-1 .45-1 1s.45 1 1 1zm0 4h13.319c.55 0 1-.45 1-1s-.45-1-1-1H76.915c-.55 0-1 .45-1 1s.45 1 1 1zm0-8h13.319c.55 0 1-.45 1-1s-.45-1-1-1H76.915c-.55 0-1 .45-1 1s.45 1 1 1zm-1-5c0 .55.45 1 1 1h13.319c.55 0 1-.45 1-1s-.45-1-1-1H76.915c-.55 0-1 .45-1 1zm12.83 5.404h.51c.047 0 .085.039.085.085v1.022c0 .046-.038.085-.085.085h-.51c-.047 0-.085-.039-.085-.085v-1.022c0-.046.038-.085.085-.085M100.825 15h12.598c.55 0 1-.45 1-1s-.45-1-1-1h-12.598c-.55 0-1 .45-1 1s.45 1 1 1zm0 4h12.598c.55 0 1-.45 1-1s-.45-1-1-1h-12.598c-.55 0-1 .45-1 1s.45 1 1 1zm0-8h12.598c.55 0 1-.45 1-1s-.45-1-1-1h-12.598c-.55 0-1 .45-1 1s.45 1 1 1zm-1-5c0 .55.45 1 1 1h12.598c.55 0 1-.45 1-1s-.45-1-1-1h-12.598c-.55 0-1 .45-1 1zm12.649 4.774h1.052c.096 0 .175.079.175.175v2.102c0 .096-.079.175-.175.175h-1.052c-.096 0-.175-.079-.175-.175v-2.102c0-.096.079-.175.175-.175M124.693 15h11.543c.55 0 1-.45 1-1s-.45-1-1-1h-11.543c-.55 0-1 .45-1 1s.45 1 1 1zm0 4h11.543c.55 0 1-.45 1-1s-.45-1-1-1h-11.543c-.55 0-1 .45-1 1s.45 1 1 1zm0-8h11.543c.55 0 1-.45 1-1s-.45-1-1-1h-11.543c-.55 0-1 .45-1 1s.45 1 1 1zm-1-5c0 .55.45 1 1 1h11.543c.55 0 1-.45 1-1s-.45-1-1-1h-11.543c-.55 0-1 .45-1 1zm12.386 3.85h1.842c.169 0 .308.138.308.307v3.686c0 .169-.139.307-.308.307h-1.842c-.169 0-.308-.138-.308-.307v-3.686c0-.169.139-.307.308-.307M148.543 15h10.342c.55 0 1-.45 1-1s-.45-1-1-1h-10.342c-.55 0-1 .45-1 1s.45 1 1 1zm0 4h10.342c.55 0 1-.45 1-1s-.45-1-1-1h-10.342c-.55 0-1 .45-1 1s.45 1 1 1zm0-8h10.342c.55 0 1-.45 1-1s-.45-1-1-1h-10.342c-.55 0-1 .45-1 1s.45 1 1 1zm-1-5c0 .55.45 1 1 1h10.342c.55 0 1-.45 1-1s-.45-1-1-1h-10.342c-.55 0-1 .45-1 1zm12.085 2.799h2.744c.251 0 .457.206.457.457v5.488c0 .251-.206.457-.457.457h-2.744c-.251 0-.457-.206-.457-.457V9.256c0-.251.206-.457.457-.457M172.41 15h9.276c.55 0 1-.45 1-1s-.45-1-1-1h-9.276c-.55 0-1 .45-1 1s.45 1 1 1zm0 4h9.276c.55 0 1-.45 1-1s-.45-1-1-1h-9.276c-.55 0-1 .45-1 1s.45 1 1 1zm0-8h9.276c.55 0 1-.45 1-1s-.45-1-1-1h-9.276c-.55 0-1 .45-1 1s.45 1 1 1zm-1-5c0 .55.45 1 1 1h9.276c.55 0 1-.45 1-1s-.45-1-1-1h-9.276c-.55 0-1 .45-1 1zm11.819 1.867h3.542c.325 0 .591.266.591.591v7.084c0 .325-.266.591-.591.591h-3.542c-.325 0-.591-.266-.591-.591V8.458c0-.325.266-.591.591-.591M196.305 15h8.438c.55 0 1-.45 1-1s-.45-1-1-1h-8.438c-.55 0-1 .45-1 1s.45 1 1 1zm0 4h8.438c.55 0 1-.45 1-1s-.45-1-1-1h-8.438c-.55 0-1 .45-1 1s.45 1 1 1zm0-8h8.438c.55 0 1-.45 1-1s-.45-1-1-1h-8.438c-.55 0-1 .45-1 1s.45 1 1 1zm-1-5c0 .55.45 1 1 1h8.438c.55 0 1-.45 1-1s-.45-1-1-1h-8.438c-.55 0-1 .45-1 1zm11.609 1.133h4.172c.382 0 .695.313.695.696v8.342c0 .383-.313.696-.695.696h-4.172c-.382 0-.695-.313-.695-.696V7.829c0-.383.313-.696.695-.696M220.224 15h7.796c.55 0 1-.45 1-1s-.45-1-1-1h-7.796c-.55 0-1 .45-1 1s.45 1 1 1zm0 4h7.796c.55 0 1-.45 1-1s-.45-1-1-1h-7.796c-.55 0-1 .45-1 1s.45 1 1 1zm0-8h7.796c.55 0 1-.45 1-1s-.45-1-1-1h-7.796c-.55 0-1 .45-1 1s.45 1 1 1zm-1-5c0 .55.45 1 1 1h7.796c.55 0 1-.45 1-1s-.45-1-1-1h-7.796c-.55 0-1 .45-1 1zm11.449.571h4.654c.426 0 .775.349.775.776v9.306c0 .427-.349.776-.775.776h-4.654c-.426 0-.775-.349-.775-.776V7.347c0-.427.349-.776.775-.776M244.163 15h7.303c.55 0 1-.45 1-1s-.45-1-1-1h-7.303c-.55 0-1 .45-1 1s.45 1 1 1zm0 4h7.303c.55 0 1-.45 1-1s-.45-1-1-1h-7.303c-.55 0-1 .45-1 1s.45 1 1 1zm0-8h7.303c.55 0 1-.45 1-1s-.45-1-1-1h-7.303c-.55 0-1 .45-1 1s.45 1 1 1zm-1-5c0 .55.45 1 1 1h7.303c.55 0 1-.45 1-1s-.45-1-1-1h-7.303c-.55 0-1 .45-1 1zm11.326.14h5.022c.461 0 .838.377.838.837v10.046c0 .46-.377.837-.838.837h-5.022c-.461 0-.838-.377-.838-.837V6.977c0-.46.377-.837.838-.837M268.116 15h6.924c.55 0 1-.45 1-1s-.45-1-1-1h-6.924c-.55 0-1 .45-1 1s.45 1 1 1zm0 4h6.924c.55 0 1-.45 1-1s-.45-1-1-1h-6.924c-.55 0-1 .45-1 1s.45 1 1 1zm0-8h6.924c.55 0 1-.45 1-1s-.45-1-1-1h-6.924c-.55 0-1 .45-1 1s.45 1 1 1zm-1-5c0 .55.45 1 1 1h6.924c.55 0 1-.45 1-1s-.45-1-1-1h-6.924c-.55 0-1 .45-1 1zm11.231-.191h5.306c.487 0 .885.398.885.884v10.614c0 .486-.398.884-.885.884h-5.306c-.487 0-.885-.398-.885-.884V6.693c0-.486.398-.884.885-.884M292.079 15h6.634c.55 0 1-.45 1-1s-.45-1-1-1h-6.634c-.55 0-1 .45-1 1s.45 1 1 1zm0 4h6.634c.55 0 1-.45 1-1s-.45-1-1-1h-6.634c-.55 0-1 .45-1 1s.45 1 1 1zm0-8h6.634c.55 0 1-.45 1-1s-.45-1-1-1h-6.634c-.55 0-1 .45-1 1s.45 1 1 1zm-1-5c0 .55.45 1 1 1h6.634c.55 0 1-.45 1-1s-.45-1-1-1h-6.634c-.55 0-1 .45-1 1zm11.159-.445h5.524c.507 0 .921.414.921.92v11.05c0 .506-.414.92-.921.92h-5.524c-.507 0-.921-.414-.921-.92V6.475c0-.506.414-.92.921-.92M316.052 15h6.413c.55 0 1-.45 1-1s-.45-1-1-1h-6.413c-.55 0-1 .45-1 1s.45 1 1 1zm0 4h6.413c.55 0 1-.45 1-1s-.45-1-1-1h-6.413c-.55 0-1 .45-1 1s.45 1 1 1zm0-8h6.413c.55 0 1-.45 1-1s-.45-1-1-1h-6.413c-.55 0-1 .45-1 1s.45 1 1 1zm-1-5c0 .55.45 1 1 1h6.413c.55 0 1-.45 1-1s-.45-1-1-1h-6.413c-.55 0-1 .45-1 1zm11.103-.638h5.69c.522 0 .948.426.948.948v11.38c0 .522-.426.948-.948.948h-5.69c-.522 0-.948-.426-.948-.948V6.31c0-.522.426-.948.948-.948M340.031 15h6.25c.55 0 1-.45 1-1s-.45-1-1-1h-6.25c-.55 0-1 .45-1 1s.45 1 1 1zm0 4h6.25c.55 0 1-.45 1-1s-.45-1-1-1h-6.25c-.55 0-1 .45-1 1s.45 1 1 1zm0-8h6.25c.55 0 1-.45 1-1s-.45-1-1-1h-6.25c-.55 0-1 .45-1 1s.45 1 1 1zm-1-5c0 .55.45 1 1 1h6.25c.55 0 1-.45 1-1s-.45-1-1-1h-6.25c-.55 0-1 .45-1 1zm11.063-.782h5.812c.533 0 .969.436.969.969v11.626c0 .533-.436.969-.969.969h-5.812c-.533 0-.969-.436-.969-.969V6.187c0-.533.436-.969.969-.969M364.017 15h6.133c.55 0 1-.45 1-1s-.45-1-1-1h-6.133c-.55 0-1 .45-1 1s.45 1 1 1zm0 4h6.133c.55 0 1-.45 1-1s-.45-1-1-1h-6.133c-.55 0-1 .45-1 1s.45 1 1 1zm0-8h6.133c.55 0 1-.45 1-1s-.45-1-1-1h-6.133c-.55 0-1 .45-1 1s.45 1 1 1zm-1-5c0 .55.45 1 1 1h6.133c.55 0 1-.45 1-1s-.45-1-1-1h-6.133c-.55 0-1 .45-1 1zm11.033-.884h5.9c.541 0 .983.443.983.984v11.8c0 .541-.442.984-.983.984h-5.9c-.541 0-.983-.443-.983-.984V6.1c0-.541.442-.984.983-.984M388.007 15h6.056c.55 0 1-.45 1-1s-.45-1-1-1h-6.056c-.55 0-1 .45-1 1s.45 1 1 1zm0 4h6.056c.55 0 1-.45 1-1s-.45-1-1-1h-6.056c-.55 0-1 .45-1 1s.45 1 1 1zm0-8h6.056c.55 0 1-.45 1-1s-.45-1-1-1h-6.056c-.55 0-1 .45-1 1s.45 1 1 1zm-1-5c0 .55.45 1 1 1h6.056c.55 0 1-.45 1-1s-.45-1-1-1h-6.056c-.55 0-1 .45-1 1zm11.014-.951h5.958c.546 0 .993.447.993.993v11.916c0 .546-.447.993-.993.993h-5.958c-.546 0-.993-.447-.993-.993V6.042c0-.546.447-.993.993-.993M412.002 15h6.013c.55 0 1-.45 1-1s-.45-1-1-1h-6.013c-.55 0-1 .45-1 1s.45 1 1 1zm0 4h6.013c.55 0 1-.45 1-1s-.45-1-1-1h-6.013c-.55 0-1 .45-1 1s.45 1 1 1zm0-8h6.013c.55 0 1-.45 1-1s-.45-1-1-1h-6.013c-.55 0-1 .45-1 1s.45 1 1 1zm-1-5c0 .55.45 1 1 1h6.013c.55 0 1-.45 1-1s-.45-1-1-1h-6.013c-.55 0-1 .45-1 1zm11.003-.988h5.99c.549 0 .998.449.998.998v11.98c0 .549-.449.998-.998.998h-5.99c-.549 0-.998-.449-.998-.998V6.01c0-.549.449-.998.998-.998M436 15h6c.55 0 1-.45 1-1s-.45-1-1-1h-6c-.55 0-1 .45-1 1s.45 1 1 1zm0 4h6c.55 0 1-.45 1-1s-.45-1-1-1h-6c-.55 0-1 .45-1 1s.45 1 1 1zm0-8h6c.55 0 1-.45 1-1s-.45-1-1-1h-6c-.55 0-1 .45-1 1s.45 1 1 1zm-1-5c0 .55.45 1 1 1h6c.55 0 1-.45 1-1s-.45-1-1-1h-6c-.55 0-1 .45-1 1zm11-1h6c.55 0 1 .45 1 1v12c0 .55-.45 1-1 1h-6c-.55 0-1-.45-1-1V6c0-.55.45-1 1-1" fill="#fff"/></svg>