<svg xmlns="http://www.w3.org/2000/svg" viewBox="0 0 456 24" width="456" height="24"><path d="M4 15h6c.55 0 1-.45 1-1s-.45-1-1-1H4c-.55 0-1 .45-1 1s.45 1 1 1zm0 4h6c.55 0 1-.45 1-1s-.45-1-1-1H4c-.55 0-1 .45-1 1s.45 1 1 1zm0-8h6c.55 0 1-.45 1-1s-.45-1-1-1H4c-.55 0-1 .45-1 1s.45 1 1 1zM3 6c0 .55.45 1 1 1h6c.55 0 1-.45 1-1s-.45-1-1-1H4c-.55 0-1 .45-1 1zm18 12V6c0-.55-.45-1-1-1h-6c-.55 0-1 .45-1 1v12c0 .55.45 1 1 1h6c.55 0 1-.45 1-1M28.007 15h6.058c.55 0 1-.45 1-1s-.45-1-1-1h-6.058c-.55 0-1 .45-1 1s.45 1 1 1zm0 4h6.058c.55 0 1-.45 1-1s-.45-1-1-1h-6.058c-.55 0-1 .45-1 1s.45 1 1 1zm0-8h6.058c.55 0 1-.45 1-1s-.45-1-1-1h-6.058c-.55 0-1 .45-1 1s.45 1 1 1zm-1-5c0 .55.45 1 1 1h6.058c.55 0 1-.45 1-1s-.45-1-1-1h-6.058c-.55 0-1 .45-1 1zm17.964 11.957V6.043c0-.546-.447-.993-.993-.993h-5.956c-.546 0-.993.447-.993.993v11.914c0 .546.447.993.993.993h5.956c.546 0 .993-.447.993-.993M52.033 15h6.262c.55 0 1-.45 1-1s-.45-1-1-1h-6.262c-.55 0-1 .45-1 1s.45 1 1 1zm0 4h6.262c.55 0 1-.45 1-1s-.45-1-1-1h-6.262c-.55 0-1 .45-1 1s.45 1 1 1zm0-8h6.262c.55 0 1-.45 1-1s-.45-1-1-1h-6.262c-.55 0-1 .45-1 1s.45 1 1 1zm-1-5c0 .55.45 1 1 1h6.262c.55 0 1-.45 1-1s-.45-1-1-1h-6.262c-.55 0-1 .45-1 1zm17.836 11.803V6.197c0-.532-.435-.967-.967-.967h-5.804c-.532 0-.967.435-.967.967v11.606c0 .532.435.967.967.967h5.804c.532 0 .967-.435.967-.967M76.085 15h6.681c.55 0 1-.45 1-1s-.45-1-1-1h-6.681c-.55 0-1 .45-1 1s.45 1 1 1zm0 4h6.681c.55 0 1-.45 1-1s-.45-1-1-1h-6.681c-.55 0-1 .45-1 1s.45 1 1 1zm0-8h6.681c.55 0 1-.45 1-1s-.45-1-1-1h-6.681c-.55 0-1 .45-1 1s.45 1 1 1zm-1-5c0 .55.45 1 1 1h6.681c.55 0 1-.45 1-1s-.45-1-1-1h-6.681c-.55 0-1 .45-1 1zM92.66 17.489V6.511c0-.504-.412-.915-.915-.915h-5.49c-.503 0-.915.411-.915.915v10.978c0 .504.412.915.915.915h5.49c.503 0 .915-.411.915-.915M100.175 15h7.402c.55 0 1-.45 1-1s-.45-1-1-1h-7.402c-.55 0-1 .45-1 1s.45 1 1 1zm0 4h7.402c.55 0 1-.45 1-1s-.45-1-1-1h-7.402c-.55 0-1 .45-1 1s.45 1 1 1zm0-8h7.402c.55 0 1-.45 1-1s-.45-1-1-1h-7.402c-.55 0-1 .45-1 1s.45 1 1 1zm-1-5c0 .55.45 1 1 1h7.402c.55 0 1-.45 1-1s-.45-1-1-1h-7.402c-.55 0-1 .45-1 1zm17.124 10.949V7.051c0-.454-.371-.825-.825-.825h-4.948c-.454 0-.825.371-.825.825v9.898c0 .454.371.825.825.825h4.948c.454 0 .825-.371.825-.825M124.307 15h8.457c.55 0 1-.45 1-1s-.45-1-1-1h-8.457c-.55 0-1 .45-1 1s.45 1 1 1zm0 4h8.457c.55 0 1-.45 1-1s-.45-1-1-1h-8.457c-.55 0-1 .45-1 1s.45 1 1 1zm0-8h8.457c.55 0 1-.45 1-1s-.45-1-1-1h-8.457c-.55 0-1 .45-1 1s.45 1 1 1zm-1-5c0 .55.45 1 1 1h8.457c.55 0 1-.45 1-1s-.45-1-1-1h-8.457c-.55 0-1 .45-1 1zm16.464 10.157V7.843c0-.381-.311-.693-.692-.693h-4.158c-.381 0-.692.312-.692.693v8.314c0 .381.311.693.692.693h4.158c.381 0 .692-.312.692-.693M148.457 15h9.658c.55 0 1-.45 1-1s-.45-1-1-1h-9.658c-.55 0-1 .45-1 1s.45 1 1 1zm0 4h9.658c.55 0 1-.45 1-1s-.45-1-1-1h-9.658c-.55 0-1 .45-1 1s.45 1 1 1zm0-8h9.658c.55 0 1-.45 1-1s-.45-1-1-1h-9.658c-.55 0-1 .45-1 1s.45 1 1 1zm-1-5c0 .55.45 1 1 1h9.658c.55 0 1-.45 1-1s-.45-1-1-1h-9.658c-.55 0-1 .45-1 1zm15.714 9.256V8.744c0-.299-.244-.543-.543-.543h-3.256c-.299 0-.543.244-.543.543v6.512c0 .299.244.543.543.543h3.256c.299 0 .543-.244.543-.543M172.59 15h10.724c.55 0 1-.45 1-1s-.45-1-1-1H172.59c-.55 0-1 .45-1 1s.45 1 1 1zm0 4h10.724c.55 0 1-.45 1-1s-.45-1-1-1H172.59c-.55 0-1 .45-1 1s.45 1 1 1zm0-8h10.724c.55 0 1-.45 1-1s-.45-1-1-1H172.59c-.55 0-1 .45-1 1s.45 1 1 1zm-1-5c0 .55.45 1 1 1h10.724c.55 0 1-.45 1-1s-.45-1-1-1H172.59c-.55 0-1 .45-1 1zm15.048 8.458V9.542c0-.225-.184-.409-.409-.409h-2.458c-.225 0-.409.184-.409.409v4.916c0 .225.184.409.409.409h2.458c.225 0 .409-.184.409-.409M196.695 15h11.562c.55 0 1-.45 1-1s-.45-1-1-1h-11.562c-.55 0-1 .45-1 1s.45 1 1 1zm0 4h11.562c.55 0 1-.45 1-1s-.45-1-1-1h-11.562c-.55 0-1 .45-1 1s.45 1 1 1zm0-8h11.562c.55 0 1-.45 1-1s-.45-1-1-1h-11.562c-.55 0-1 .45-1 1s.45 1 1 1zm-1-5c0 .55.45 1 1 1h11.562c.55 0 1-.45 1-1s-.45-1-1-1h-11.562c-.55 0-1 .45-1 1zm14.524 7.829v-3.658c0-.167-.137-.304-.305-.304h-1.828c-.168 0-.305.137-.305.304v3.658c0 .167.137.304.305.304h1.828c.168 0 .305-.137.305-.304M220.776 15h12.204c.55 0 1-.45 1-1s-.45-1-1-1h-12.204c-.55 0-1 .45-1 1s.45 1 1 1zm0 4h12.204c.55 0 1-.45 1-1s-.45-1-1-1h-12.204c-.55 0-1 .45-1 1s.45 1 1 1zm0-8h12.204c.55 0 1-.45 1-1s-.45-1-1-1h-12.204c-.55 0-1 .45-1 1s.45 1 1 1zm-1-5c0 .55.45 1 1 1h12.204c.55 0 1-.45 1-1s-.45-1-1-1h-12.204c-.55 0-1 .45-1 1zm14.122 7.347v-2.694c0-.123-.101-.224-.225-.224h-1.346c-.124 0-.225.101-.225.224v2.694c0 .123.101.224.225.224h1.346c.124 0 .225-.101.225-.224M244.837 15h12.697c.55 0 1-.45 1-1s-.45-1-1-1h-12.697c-.55 0-1 .45-1 1s.45 1 1 1zm0 4h12.697c.55 0 1-.45 1-1s-.45-1-1-1h-12.697c-.55 0-1 .45-1 1s.45 1 1 1zm0-8h12.697c.55 0 1-.45 1-1s-.45-1-1-1h-12.697c-.55 0-1 .45-1 1s.45 1 1 1zm-1-5c0 .55.45 1 1 1h12.697c.55 0 1-.45 1-1s-.45-1-1-1h-12.697c-.55 0-1 .45-1 1zm13.814 6.977v-1.954c0-.09-.073-.163-.162-.163h-.978c-.089 0-.162.073-.162.163v1.954c0 .09.073.163.162.163h.978c.089 0 .162-.073.162-.163M268.884 15h13.076c.55 0 1-.45 1-1s-.45-1-1-1h-13.076c-.55 0-1 .45-1 1s.45 1 1 1zm0 4h13.076c.55 0 1-.45 1-1s-.45-1-1-1h-13.076c-.55 0-1 .45-1 1s.45 1 1 1zm0-8h13.076c.55 0 1-.45 1-1s-.45-1-1-1h-13.076c-.55 0-1 .45-1 1s.45 1 1 1zm-1-5c0 .55.45 1 1 1h13.076c.55 0 1-.45 1-1s-.45-1-1-1h-13.076c-.55 0-1 .45-1 1zm13.578 6.693v-1.386c0-.064-.052-.116-.115-.116h-.694c-.063 0-.115.052-.115.116v1.386c0 .064.052.116.115.116h.694c.063 0 .115-.052.115-.116M292.921 15h13.366c.55 0 1-.45 1-1s-.45-1-1-1h-13.366c-.55 0-1 .45-1 1s.45 1 1 1zm0 4h13.366c.55 0 1-.45 1-1s-.45-1-1-1h-13.366c-.55 0-1 .45-1 1s.45 1 1 1zm0-8h13.366c.55 0 1-.45 1-1s-.45-1-1-1h-13.366c-.55 0-1 .45-1 1s.45 1 1 1zm-1-5c0 .55.45 1 1 1h13.366c.55 0 1-.45 1-1s-.45-1-1-1h-13.366c-.55 0-1 .45-1 1zm13.396 6.475v-.95c0-.044-.036-.08-.079-.08h-.476c-.043 0-.079.036-.079.08v.95c0 .044.036.08.079.08h.476c.043 0 .079-.036.079-.08M316.948 15h13.587c.55 0 1-.45 1-1s-.45-1-1-1h-13.587c-.55 0-1 .45-1 1s.45 1 1 1zm0 4h13.587c.55 0 1-.45 1-1s-.45-1-1-1h-13.587c-.55 0-1 .45-1 1s.45 1 1 1zm0-8h13.587c.55 0 1-.45 1-1s-.45-1-1-1h-13.587c-.55 0-1 .45-1 1s.45 1 1 1zm-1-5c0 .55.45 1 1 1h13.587c.55 0 1-.45 1-1s-.45-1-1-1h-13.587c-.55 0-1 .45-1 1zm13.259 6.31v-.62c0-.028-.024-.052-.052-.052h-.31c-.028 0-.052.024-.052.052v.62c0 .028.024.052.052.052h.31c.028 0 .052-.024.052-.052M340.969 15h13.75c.55 0 1-.45 1-1s-.45-1-1-1h-13.75c-.55 0-1 .45-1 1s.45 1 1 1zm0 4h13.75c.55 0 1-.45 1-1s-.45-1-1-1h-13.75c-.55 0-1 .45-1 1s.45 1 1 1zm0-8h13.75c.55 0 1-.45 1-1s-.45-1-1-1h-13.75c-.55 0-1 .45-1 1s.45 1 1 1zm-1-5c0 .55.45 1 1 1h13.75c.55 0 1-.45 1-1s-.45-1-1-1h-13.75c-.55 0-1 .45-1 1zm13.156 6.187v-.374c0-.017-.014-.031-.031-.031h-.188c-.017 0-.031.014-.031.031v.374c0 .017.014.031.031.031h.188c.017 0 .031-.014.031-.031M364.983 15h13.867c.55 0 1-.45 1-1s-.45-1-1-1h-13.867c-.55 0-1 .45-1 1s.45 1 1 1zm0 4h13.867c.55 0 1-.45 1-1s-.45-1-1-1h-13.867c-.55 0-1 .45-1 1s.45 1 1 1zm0-8h13.867c.55 0 1-.45 1-1s-.45-1-1-1h-13.867c-.55 0-1 .45-1 1s.45 1 1 1zm-1-5c0 .55.45 1 1 1h13.867c.55 0 1-.45 1-1s-.45-1-1-1h-13.867c-.55 0-1 .45-1 1zm13.084 6.1v-.2c0-.009-.008-.016-.017-.016h-.1c-.009 0-.017.007-.017.016v.2c0 .009.008.016.017.016h.1c.009 0 .017-.007.017-.016M388.993 15h13.944c.55 0 1-.45 1-1s-.45-1-1-1h-13.944c-.55 0-1 .45-1 1s.45 1 1 1zm0 4h13.944c.55 0 1-.45 1-1s-.45-1-1-1h-13.944c-.55 0-1 .45-1 1s.45 1 1 1zm0-8h13.944c.55 0 1-.45 1-1s-.45-1-1-1h-13.944c-.55 0-1 .45-1 1s.45 1 1 1zm-1-5c0 .55.45 1 1 1h13.944c.55 0 1-.45 1-1s-.45-1-1-1h-13.944c-.55 0-1 .45-1 1zm13.035 6.042v-.084c0-.004-.003-.007-.007-.007h-.042c-.004 0-.007.003-.007.007v.084c0 .004.003.007.007.007h.042c.004 0 .007-.003.007-.007M412.998 15h13.987c.55 0 1-.45 1-1s-.45-1-1-1h-13.987c-.55 0-1 .45-1 1s.45 1 1 1zm0 4h13.987c.55 0 1-.45 1-1s-.45-1-1-1h-13.987c-.55 0-1 .45-1 1s.45 1 1 1zm0-8h13.987c.55 0 1-.45 1-1s-.45-1-1-1h-13.987c-.55 0-1 .45-1 1s.45 1 1 1zm-1-5c0 .55.45 1 1 1h13.987c.55 0 1-.45 1-1s-.45-1-1-1h-13.987c-.55 0-1 .45-1 1zm13.009 6.01v-.02c0-.001-.001-.002-.002-.002h-.01c-.001 0-.002.001-.002.002v.02c0 .001.001.002.002.002h.01c.001 0 .002-.001.002-.002M437 15h14c.55 0 1-.45 1-1s-.45-1-1-1h-14c-.55 0-1 .45-1 1s.45 1 1 1zm0 4h14c.55 0 1-.45 1-1s-.45-1-1-1h-14c-.55 0-1 .45-1 1s.45 1 1 1zm0-8h14c.55 0 1-.45 1-1s-.45-1-1-1h-14c-.55 0-1 .45-1 1s.45 1 1 1zm-1-5c0 .55.45 1 1 1h14c.55 0 1-.45 1-1s-.45-1-1-1h-14c-.55 0-1 .45-1 1zm13 6" fill="#000000"/></svg>